# xmcd CD database file
#
# Track frame offsets:
#	150
#	19915
#	43226
#	66653
#	97416
#	135650
#	156645
#	203533
#	216383
#	228077
#	248879
#
# Disc length: 4193 seconds
#
# Revision: 0
# Processed by: cddbd v1.5.2PL0 Copyright (c) Steve Scherf et al.
# Submitted via: CDex 1.51
#
DISCID=ab105f0b
DTITLE=Jukka Perko ja Johanna Iivanainen - Martan ja Rudolfin joulu
DYEAR=2013
DGENRE=Jazz
TTITLE0=Enkeli taivaan
TTITLE1=Mökit nukkuu lumiset
TTITLE2=Ja neitsyt pikkupoijuttansa
TTITLE3=Tonttu
TTITLE4=Tuo armon valokyyhky
TTITLE5=En etsi valtaa loistoa
TTITLE6=Varpunen jouluaamuna
TTITLE7=Jouluruno - Pako Egyptiin II
TTITLE8=Rauhaa ja rauhaa
TTITLE9=Pieni rumpalipoika
TTITLE10=Tulkoon joulu - Jouluyö, juhlayö - Enkeli taivaan
EXTD=YEAR: 2013
EXTT0=
EXTT1=
EXTT2=
EXTT3=
EXTT4=
EXTT5=
EXTT6=
EXTT7=
EXTT8=
EXTT9=
EXTT10=
PLAYORDER=
